<?xml version="1.0" encoding="UTF-8" standalone="no"?>
<!-- Uploaded to: SVG Repo, www.svgrepo.com, Generator: SVG Repo Mixer Tools -->

<svg
   fill="#0000ff"
   height="800"
   width="800"
   version="1.1"
   id="Capa_1"
   viewBox="0 0 488 488"
   xml:space="preserve"
   sodipodi:docname="networking-svgrepo-com.svg"
   xmlns:inkscape="http://www.inkscape.org/namespaces/inkscape"
   xmlns:sodipodi="http://sodipodi.sourceforge.net/DTD/sodipodi-0.dtd"
   xmlns="http://www.w3.org/2000/svg"
   xmlns:svg="http://www.w3.org/2000/svg"><defs
   id="defs18" /><sodipodi:namedview
   id="namedview18"
   pagecolor="#ffffff"
   bordercolor="#000000"
   borderopacity="0.25"
   inkscape:showpageshadow="2"
   inkscape:pageopacity="0.0"
   inkscape:pagecheckerboard="0"
   inkscape:deskcolor="#d1d1d1" />
<g
   id="g18">
	<g
   id="g17">
		<path
   d="m 305.4,244 c 0,-33.9 -27.6,-61.4 -61.4,-61.4 -33.8,0 -61.4,27.5 -61.4,61.4 0,33.9 27.6,61.4 61.4,61.4 33.8,0 61.4,-27.5 61.4,-61.4 z M 244,281.4 c -20.6,0 -37.4,-16.8 -37.4,-37.4 0,-20.6 16.8,-37.4 37.4,-37.4 20.6,0 37.4,16.8 37.4,37.4 0,20.6 -16.8,37.4 -37.4,37.4 z"
   id="path1"
   style="display:none" />
		<path
   d="m 155.1,232 c -6.6,0 -12,5.4 -12,12 0,6.6 5.4,12 12,12 6.6,0 12,-5.4 12,-12 0,-6.6 -5.4,-12 -12,-12 z"
   id="path2"
   style="display:none" />
		<path
   d="m 103.8,244 c 0,6.6 5.4,12 12,12 6.6,0 12,-5.4 12,-12 0,-6.6 -5.4,-12 -12,-12 -6.6,0 -12,5.4 -12,12 z"
   id="path3" />
		<path
   d="M 88.5,244 C 88.5,219.6 68.6,199.7 44.2,199.7 19.8,199.7 0,219.6 0,244 c 0,24.4 19.9,44.3 44.3,44.3 24.4,0 44.2,-19.9 44.2,-44.3 z M 44.3,264.3 C 33.1,264.3 24,255.2 24,244 c 0,-11.2 9.1,-20.3 20.3,-20.3 11.2,0 20.3,9.1 20.3,20.3 0,11.2 -9.2,20.3 -20.3,20.3 z"
   id="path4" />
		<circle
   cx="372.20001"
   cy="244"
   r="12"
   id="circle4" />
		<path
   d="m 332.9,256 c 6.6,0 12,-5.4 12,-12 0,-6.6 -5.4,-12 -12,-12 -6.6,0 -12,5.4 -12,12 0,6.6 5.4,12 12,12 z"
   id="path5"
   style="display:none" />
		<path
   d="m 443.7,199.7 c -24.4,0 -44.3,19.9 -44.3,44.3 0,24.4 19.9,44.3 44.3,44.3 24.4,0 44.3,-19.9 44.3,-44.3 0,-24.4 -19.9,-44.3 -44.3,-44.3 z m 0,64.6 c -11.2,0 -20.3,-9.1 -20.3,-20.3 0,-11.2 9.1,-20.3 20.3,-20.3 11.2,0 20.3,9.1 20.3,20.3 0,11.2 -9.1,20.3 -20.3,20.3 z"
   id="path6" />
		<path
   d="m 244,320.9 c -6.6,0 -12,5.4 -12,12 0,6.6 5.4,12 12,12 6.6,0 12,-5.4 12,-12 0,-6.6 -5.4,-12 -12,-12 z"
   id="path7"
   style="display:none" />
		<path
   d="m 244,360.2 c -6.6,0 -12,5.4 -12,12 0,6.6 5.4,12 12,12 6.6,0 12,-5.4 12,-12 0,-6.6 -5.4,-12 -12,-12 z"
   id="path8" />
		<path
   d="m 244,399.5 c -24.4,0 -44.3,19.9 -44.3,44.3 0,24.4 19.9,44.2 44.3,44.2 24.4,0 44.3,-19.9 44.3,-44.3 0,-24.4 -19.9,-44.2 -44.3,-44.2 z m 0,64.5 c -11.2,0 -20.3,-9.1 -20.3,-20.3 0,-11.2 9.1,-20.3 20.3,-20.3 11.2,0 20.3,9.1 20.3,20.3 0,11.2 -9.1,20.3 -20.3,20.3 z"
   id="path9" />
		<path
   d="m 244,167.1 c 6.6,0 12,-5.4 12,-12 0,-6.6 -5.4,-12 -12,-12 -6.6,0 -12,5.4 -12,12 0,6.6 5.4,12 12,12 z"
   id="path10"
   style="display:none" />
		<circle
   cx="244"
   cy="115.8"
   r="12"
   id="circle10" />
		<path
   d="m 244,88.5 c 24.4,0 44.3,-19.9 44.3,-44.3 C 288.3,19.8 268.4,0 244,0 c -24.4,0 -44.3,19.9 -44.3,44.3 0,24.4 19.9,44.2 44.3,44.2 z M 244,24 c 11.2,0 20.3,9.1 20.3,20.3 0,11.2 -9.1,20.3 -20.3,20.3 -11.2,0 -20.3,-9.1 -20.3,-20.3 0,-11.2 9.1,-20.3 20.3,-20.3 z"
   id="path11" />
		<path
   d="m 172.7,298.4 c -4.7,4.7 -4.7,12.3 0,17 4.7,4.7 12.3,4.7 17,0 4.7,-4.7 4.7,-12.3 0,-17 -4.8,-4.7 -12.4,-4.7 -17,0 z"
   id="path12"
   style="display:none" />
		<circle
   cx="153.39999"
   cy="334.60001"
   r="12"
   id="circle12" />
		<path
   d="m 71.5,353.9 c -17.3,17.3 -17.3,45.3 0,62.6 17.3,17.3 45.3,17.3 62.6,0 17.3,-17.3 17.3,-45.3 0,-62.6 -17.3,-17.2 -45.4,-17.2 -62.6,0 z m 45.6,45.7 c -7.9,7.9 -20.7,7.9 -28.6,0 -7.9,-7.9 -7.9,-20.7 0,-28.6 7.9,-7.9 20.7,-7.9 28.6,0 7.9,7.8 7.9,20.7 0,28.6 z"
   id="path13" />
		<circle
   cx="334.60001"
   cy="153.39999"
   r="12"
   id="circle13" />
		<circle
   cx="306.89999"
   cy="181.10001"
   r="12"
   id="circle14"
   style="display:none" />
		<path
   d="m 416.5,134.1 c 17.3,-17.3 17.3,-45.3 0,-62.6 -17.3,-17.3 -45.3,-17.3 -62.6,0 -17.3,17.3 -17.3,45.3 0,62.6 17.3,17.3 45.4,17.2 62.6,0 z M 370.9,88.4 c 7.9,-7.9 20.7,-7.9 28.6,0 7.9,7.9 7.9,20.7 0,28.6 -7.9,7.9 -20.7,7.9 -28.6,0 -7.9,-7.8 -7.9,-20.7 0,-28.6 z"
   id="path14" />
		<circle
   cx="334.60001"
   cy="334.60001"
   r="12"
   id="circle15" />
		<path
   d="m 298.4,298.4 c -4.7,4.7 -4.7,12.3 0,17 4.7,4.7 12.3,4.7 17,0 4.7,-4.7 4.7,-12.3 0,-17 -4.7,-4.7 -12.3,-4.7 -17,0 z"
   id="path15"
   style="display:none" />
		<path
   d="m 353.9,353.9 c -17.3,17.3 -17.3,45.3 0,62.6 17.3,17.3 45.3,17.3 62.6,0 17.3,-17.3 17.3,-45.3 0,-62.6 -17.2,-17.2 -45.3,-17.2 -62.6,0 z m 45.7,45.7 c -7.9,7.9 -20.7,7.9 -28.6,0 -7.9,-7.9 -7.9,-20.7 0,-28.6 7.9,-7.9 20.7,-7.9 28.6,0 7.9,7.8 7.9,20.7 0,28.6 z"
   id="path16" />
		<circle
   cx="181.10001"
   cy="181.10001"
   r="12"
   id="circle16"
   style="display:none" />
		<circle
   cx="153.39999"
   cy="153.39999"
   r="12"
   id="circle17" />
		<path
   d="m 134.1,134.1 c 17.3,-17.3 17.3,-45.3 0,-62.6 -17.3,-17.3 -45.3,-17.3 -62.6,0 -17.3,17.3 -17.3,45.3 0,62.6 17.2,17.2 45.3,17.2 62.6,0 z M 88.4,88.4 c 7.9,-7.9 20.7,-7.9 28.6,0 7.9,7.9 7.9,20.7 0,28.6 -7.9,7.9 -20.7,7.9 -28.6,0 -7.9,-7.8 -7.9,-20.7 0,-28.6 z"
   id="path17" />
	<g
   style="fill:none"
   id="g19"
   transform="matrix(8.1143899,0,0,7.6476569,150.57646,147.56173)"><path
     d="M 10,21 7.18762,18.9912 C 4.55966,17.1141 3,14.0834 3,10.8538 V 5.75432 C 3,5.30784 3.29598,4.91546 3.72528,4.7928 l 6,-1.71428 c 0.17955,-0.05131 0.36992,-0.05131 0.54942,0 l 6,1.71428 C 16.704,4.91546 17,5.30784 17,5.75432 v 1.7457 M 19,15 v -2 c 0,-1.1045 -0.8954,-2 -2,-2 -1.1046,0 -2,0.8955 -2,2 v 2 m 4,0 h -4 m 4,0 c 1.1046,0 2,0.8955 2,2 v 2 c 0,1.1046 -0.8954,2 -2,2 h -4 c -1.1046,0 -2,-0.8954 -2,-2 v -2 c 0,-1.1045 0.8954,-2 2,-2"
     stroke="#ff0000"
     stroke-width="2"
     stroke-linecap="round"
     stroke-linejoin="round"
     id="path1-7" /></g></g>
</g>
</svg>
